<svg xmlns="http://www.w3.org/2000/svg" width="512" height="512" viewBox="0 0 512 512">
  <rect width="512" height="512" fill="#0f1420"/>
  <!-- classic soccer ball, centered with padding so it survives Android maskable cropping -->
  <g transform="translate(256,256) scale(1.32)" clip-path="url(#ballclip)">
    <circle r="104" fill="#ffffff"/>
    <polygon points="0,-33 31.38,-10.2 19.4,26.7 -19.4,26.7 -31.38,-10.2" fill="#0f1420"/>
    <g fill="#0f1420">
        <polygon points="61.72,-84.94 71.53,-54.76 45.85,-36.1 20.17,-54.76 29.98,-84.94"/>
        <polygon points="99.86,32.44 74.18,51.1 48.5,32.44 58.31,2.26 90.05,2.26"/>
        <polygon points="0,105 -25.68,86.34 -15.87,56.16 15.87,56.16 25.68,86.34"/>
        <polygon points="-99.86,32.44 -90.05,2.26 -58.31,2.26 -48.5,32.44 -74.18,51.1"/>
        <polygon points="-61.72,-84.94 -29.98,-84.94 -20.17,-54.76 -45.85,-36.1 -71.53,-54.76"/>
    </g>
    <g stroke="#0f1420" stroke-width="5" stroke-linecap="round" fill="none">
        <line x1="0" y1="-33" x2="0" y2="-104"/>
        <line x1="31.38" y1="-10.2" x2="98.91" y2="-32.14"/>
        <line x1="19.4" y1="26.7" x2="61.13" y2="84.14"/>
        <line x1="-19.4" y1="26.7" x2="-61.13" y2="84.14"/>
        <line x1="-31.38" y1="-10.2" x2="-98.91" y2="-32.14"/>
    </g>
    <circle r="104" fill="none" stroke="#0f1420" stroke-width="5"/>
  </g>
  <clipPath id="ballclip"><circle r="104"/></clipPath>
</svg>
