<svg xmlns="http://www.w3.org/2000/svg" width="1200" height="630" viewBox="0 0 1200 630">
  <defs>
    <radialGradient id="bg" cx="80%" cy="-10%" r="100%">
      <stop offset="0%" stop-color="#1d2a45"/>
      <stop offset="55%" stop-color="#0f1420"/>
      <stop offset="100%" stop-color="#0b0f18"/>
    </radialGradient>
    <clipPath id="ballclip"><circle r="104"/></clipPath>
  </defs>
  <rect width="1200" height="630" fill="url(#bg)"/>
  <rect x="0" y="0" width="1200" height="12" fill="#37c871"/>

  <!-- classic soccer ball -->
  <g transform="translate(168,330)" clip-path="url(#ballclip)">
    <circle r="104" fill="#ffffff"/>
    <polygon points="0,-33 31.38,-10.2 19.4,26.7 -19.4,26.7 -31.38,-10.2" fill="#11161f"/>
    <g fill="#11161f">
      <polygon points="61.72,-84.94 71.53,-54.76 45.85,-36.1 20.17,-54.76 29.98,-84.94"/>
      <polygon points="99.86,32.44 74.18,51.1 48.5,32.44 58.31,2.26 90.05,2.26"/>
      <polygon points="0,105 -25.68,86.34 -15.87,56.16 15.87,56.16 25.68,86.34"/>
      <polygon points="-99.86,32.44 -90.05,2.26 -58.31,2.26 -48.5,32.44 -74.18,51.1"/>
      <polygon points="-61.72,-84.94 -29.98,-84.94 -20.17,-54.76 -45.85,-36.1 -71.53,-54.76"/>
    </g>
    <g stroke="#11161f" stroke-width="5" stroke-linecap="round" fill="none">
      <line x1="0" y1="-33" x2="0" y2="-104"/>
      <line x1="31.38" y1="-10.2" x2="98.91" y2="-32.14"/>
      <line x1="19.4" y1="26.7" x2="61.13" y2="84.14"/>
      <line x1="-19.4" y1="26.7" x2="-61.13" y2="84.14"/>
      <line x1="-31.38" y1="-10.2" x2="-98.91" y2="-32.14"/>
    </g>
    <circle r="104" fill="none" stroke="#11161f" stroke-width="5"/>
  </g>

  <!-- text -->
  <text x="330" y="262" font-family="Arial, Helvetica, sans-serif" font-size="92" font-weight="800" fill="#ffffff">World Cup 2026</text>
  <text x="332" y="334" font-family="Arial, Helvetica, sans-serif" font-size="46" font-weight="700" fill="#37c871">Schedule Viewer</text>
  <text x="332" y="408" font-family="Arial, Helvetica, sans-serif" font-size="31" fill="#aab4c5">All 104 matches in your timezone · live scores · bracket</text>
  <text x="332" y="460" font-family="Arial, Helvetica, sans-serif" font-size="27" fill="#7f8aa0">USA · Canada · Mexico</text>
</svg>
